<svg width="711.455029296875px" height="155.36000366210936px" xmlns="http://www.w3.org/2000/svg" viewBox="-105.72751464843748 -2.680001831054682 711.455029296875 155.36000366210936" style="background: rgba(0, 0, 0, 0); --darkreader-inline-bgimage: initial; --darkreader-inline-bgcolor: rgba(0, 0, 0, 0);" data-darkreader-inline-bgimage="" data-darkreader-inline-bgcolor="" preserveAspectRatio="xMidYMid"><defs><filter id="editing-hole" x="-100%" y="-100%" width="300%" height="300%"><feFlood flood-color="#000" result="black"></feFlood><feMorphology operator="dilate" radius="2" in="SourceGraphic" result="erode"></feMorphology><feGaussianBlur in="erode" stdDeviation="4" result="blur"></feGaussianBlur><feOffset in="blur" dx="2" dy="2" result="offset"></feOffset><feComposite operator="atop" in="offset" in2="black" result="merge"></feComposite><feComposite operator="in" in="merge" in2="SourceGraphic" result="inner-shadow"></feComposite></filter></defs><g filter="url(#editing-hole)"><g transform="translate(-5.289980411529541, 107.25)"><path d="M3.61-53.32L3.61-53.32L3.61-53.32Q4.82-55.73 7.44-57.06L7.44-57.06L7.44-57.06Q10.06-58.39 13.67-58.39L13.67-58.39L13.67-58.39Q19.35-58.39 22.75-54.31L22.75-54.31L22.75-54.31Q26.14-50.22 26.14-41.28L26.14-41.28L26.14-10.58L45.84-56.67L55.99-56.67L58.31-13.16L58.05-10.66L78.52-56.67L90.30-56.67L62.78 0L44.46 0L42.74-26.14L31.39 0L10.66 0L8.08-41.28L8.08-41.28Q7.83-45.92 6.58-48.98L6.58-48.98L6.58-48.98Q5.33-52.03 3.61-53.32ZM119.97-14.53L119.97-14.53L119.97-14.53Q122.12-13.07 122.12-9.85L122.12-9.85L122.12-9.85Q122.12-6.62 120.49-4.56L120.49-4.56L120.49-4.56Q118.85-2.49 116.19-1.12L116.19-1.12L116.19-1.12Q110.68 1.72 104.75 1.72L104.75 1.72L104.75 1.72Q98.81 1.72 95.33 0.43L95.33 0.43L95.33 0.43Q91.85-0.86 89.53-3.27L89.53-3.27L89.53-3.27Q84.97-7.83 84.97-16.17L84.97-16.17L84.97-16.17Q84.97-29.15 92.02-37.07L92.02-37.07L92.02-37.07Q99.59-45.58 112.75-45.58L112.75-45.58L112.75-45.58Q120.92-45.58 124.96-42.14L124.96-42.14L124.96-42.14Q127.97-39.56 127.97-35.35L127.97-35.35L127.97-35.35Q127.97-20.21 101.82-20.21L101.82-20.21L101.82-20.21Q101.48-17.97 101.48-16.08L101.48-16.08L101.48-16.08Q101.48-12.13 103.24-10.62L103.24-10.62L103.24-10.62Q105.01-9.12 108.27-9.12L108.27-9.12L108.27-9.12Q111.54-9.12 115.03-10.62L115.03-10.62L115.03-10.62Q118.51-12.13 119.97-14.53ZM102.43-23.91L102.43-23.91L102.43-23.91Q108.53-23.91 112.06-27.69L112.06-27.69L112.06-27.69Q115.58-31.30 115.58-37.07L115.58-37.07L115.58-37.07Q115.58-39.04 114.85-40.12L114.85-40.12L114.85-40.12Q114.12-41.19 112.66-41.19L112.66-41.19L112.66-41.19Q111.20-41.19 109.95-40.64L109.95-40.64L109.95-40.64Q108.70-40.08 107.41-38.18L107.41-38.18L107.41-38.18Q104.23-33.88 102.43-23.91ZM129.77-4.13L129.77-4.13L140.44-60.20L157.90-61.92L155.23-48.76L155.23-48.76Q154.28-44.72 153.08-41.88L153.08-41.88L153.08-41.88Q154.97-44.29 159.10-45.24L159.10-45.24L159.10-45.24Q160.30-45.58 161.77-45.58L161.77-45.58L161.77-45.58Q169.76-45.58 174.15-40.72L174.15-40.72L174.15-40.72Q178.54-35.86 178.54-26.49L178.54-26.49L178.54-26.49Q178.54-14.28 171.57-6.62L171.57-6.62L171.57-6.62Q164.09 1.72 150.50 1.72L150.50 1.72L150.50 1.72Q141.13 1.72 134.07-1.38L134.07-1.38L134.07-1.38Q131.58-2.49 129.77-4.13ZM151.62-30.10L147.06-4.90L147.06-4.90Q148.87-3.35 151.10-3.35L151.10-3.35L151.10-3.35Q153.34-3.35 154.63-4.21L154.63-4.21L154.63-4.21Q155.92-5.07 156.86-6.79L156.86-6.79L156.86-6.79Q159.44-11.44 161.51-25.63L161.51-25.63L161.51-25.63Q162.11-29.67 162.11-33.71L162.11-33.71L162.11-33.71Q162.11-37.75 161.21-39.04L161.21-39.04L161.21-39.04Q160.30-40.33 158.58-40.33L158.58-40.33L158.58-40.33Q153.34-40.33 151.62-30.10L151.62-30.10ZM234.95-39.73L234.95-39.73L234.95-39.73Q236.24-42.31 236.24-44.72L236.24-44.72L236.24-44.72Q236.24-47.13 235.98-48.46L235.98-48.46L235.98-48.46Q235.73-49.79 235.12-50.83L235.12-50.83L235.12-50.83Q233.83-53.06 231.25-53.06L231.25-53.06L231.25-53.06Q228.07-53.06 225.49-50.74L225.49-50.74L225.49-50.74Q222.74-48.33 222.74-44.55L222.74-44.55L222.74-44.55Q222.74-42.14 224.42-40.29L224.42-40.29L224.42-40.29Q226.09-38.44 228.67-36.72L228.67-36.72L228.67-36.72Q231.25-35.00 234.18-33.28L234.18-33.28L234.18-33.28Q237.10-31.56 239.68-29.50L239.68-29.50L239.68-29.50Q245.62-24.77 245.62-18.40L245.62-18.40L245.62-18.40Q245.62-14.10 243.34-10.45L243.34-10.45L243.34-10.45Q241.06-6.79 237.27-4.13L237.27-4.13L237.27-4.13Q229.02 1.72 218.10 1.72L218.10 1.72L218.10 1.72Q209.24 1.72 204.68-1.16L204.68-1.16L204.68-1.16Q200.12-4.04 200.12-8.43L200.12-8.43L200.12-8.43Q200.12-16.25 206.23-18.23L206.23-18.23L206.23-18.23Q207.95-18.83 210.57-18.83L210.57-18.83L210.57-18.83Q213.19-18.83 216.20-17.72L216.20-17.72L216.20-17.72Q214.83-14.19 214.83-11.01L214.83-11.01L214.83-11.01Q214.83-4.13 219.73-4.13L219.73-4.13L219.73-4.13Q222.91-4.13 225.54-6.45L225.54-6.45L225.54-6.45Q228.16-8.77 228.16-11.40L228.16-11.40L228.16-11.40Q228.16-14.02 226.48-15.91L226.48-15.91L226.48-15.91Q224.80-17.80 222.31-19.31L222.31-19.31L222.31-19.31Q219.82-20.81 216.94-22.27L216.94-22.27L216.94-22.27Q214.05-23.74 211.56-25.80L211.56-25.80L211.56-25.80Q205.71-30.53 205.71-38.10L205.71-38.10L205.71-38.10Q205.71-43 208.12-46.83L208.12-46.83L208.12-46.83Q210.53-50.65 214.40-53.23L214.40-53.23L214.40-53.23Q222.14-58.48 231.64-58.48L231.64-58.48L231.64-58.48Q241.14-58.48 245.75-55.64L245.75-55.64L245.75-55.64Q250.35-52.80 250.35-47.99L250.35-47.99L250.35-47.99Q250.35-43.77 247.08-41.11L247.08-41.11L247.08-41.11Q244.24-38.87 240.80-38.87L240.80-38.87L240.80-38.87Q237.36-38.87 234.95-39.73ZM286.98-14.53L286.98-14.53L286.98-14.53Q289.13-13.07 289.13-9.85L289.13-9.85L289.13-9.85Q289.13-6.62 287.50-4.56L287.50-4.56L287.50-4.56Q285.86-2.49 283.20-1.12L283.20-1.12L283.20-1.12Q277.69 1.72 271.76 1.72L271.76 1.72L271.76 1.72Q265.83 1.72 262.34 0.43L262.34 0.43L262.34 0.43Q258.86-0.86 256.54-3.27L256.54-3.27L256.54-3.27Q251.98-7.83 251.98-16.17L251.98-16.17L251.98-16.17Q251.98-29.15 259.03-37.07L259.03-37.07L259.03-37.07Q266.60-45.58 279.76-45.58L279.76-45.58L279.76-45.58Q287.93-45.58 291.97-42.14L291.97-42.14L291.97-42.14Q294.98-39.56 294.98-35.35L294.98-35.35L294.98-35.35Q294.98-20.21 268.84-20.21L268.84-20.21L268.84-20.21Q268.49-17.97 268.49-16.08L268.49-16.08L268.49-16.08Q268.49-12.13 270.26-10.62L270.26-10.62L270.26-10.62Q272.02-9.12 275.29-9.12L275.29-9.12L275.29-9.12Q278.55-9.12 282.04-10.62L282.04-10.62L282.04-10.62Q285.52-12.13 286.98-14.53ZM269.44-23.91L269.44-23.91L269.44-23.91Q275.54-23.91 279.07-27.69L279.07-27.69L279.07-27.69Q282.60-31.30 282.60-37.07L282.60-37.07L282.60-37.07Q282.60-39.04 281.87-40.12L281.87-40.12L281.87-40.12Q281.13-41.19 279.67-41.19L279.67-41.19L279.67-41.19Q278.21-41.19 276.96-40.64L276.96-40.64L276.96-40.64Q275.72-40.08 274.43-38.18L274.43-38.18L274.43-38.18Q271.24-33.88 269.44-23.91ZM324.82-24.17L324.82-24.17L324.82-24.17Q327.92-29.67 327.92-35.26L327.92-35.26L327.92-35.26Q327.92-38.96 325.25-38.96L325.25-38.96L325.25-38.96Q323.19-38.96 321.04-35.43L321.04-35.43L321.04-35.43Q318.80-31.91 318.11-27.35L318.11-27.35L313.64 0L295.84 1.72L304.61-43.86L318.80-45.58L317.25-36.89L317.25-36.89Q321.47-45.58 330.93-45.58L330.93-45.58L330.93-45.58Q335.92-45.58 338.63-43L338.63-43L338.63-43Q341.33-40.42 341.33-35.13L341.33-35.13L341.33-35.13Q341.33-29.84 337.85-26.49L337.85-26.49L337.85-26.49Q334.37-23.13 328.43-23.13L328.43-23.13L328.43-23.13Q325.85-23.13 324.82-24.17ZM373.93-42.40L373.93-42.40L373.93-42.40Q376.77-45.58 381.67-45.58L381.67-45.58L381.67-45.58Q384.68-45.58 387-43.95L387-43.95L387-43.95Q389.32-42.31 389.32-39.26L389.32-39.26L389.32-39.26Q389.32-36.21 388.38-32.94L388.38-32.94L388.38-32.94Q387.43-29.67 385.97-26.32L385.97-26.32L385.97-26.32Q383.04-19.78 379.00-14.36L379.00-14.36L379.00-14.36Q373.33-6.54 367.87-2.41L367.87-2.41L367.87-2.41Q362.40 1.72 356.47 1.72L356.47 1.72L356.47 1.72Q351.65 1.72 348.73 0.60L348.73 0.60L348.73 0.60Q348.21-17.46 347.57-23.91L347.57-23.91L347.57-23.91Q346.92-30.36 346.41-33.88L346.41-33.88L346.41-33.88Q345.55-40.76 342.97-42.40L342.97-42.40L342.97-42.40Q344.95-44.12 346.88-44.85L346.88-44.85L346.88-44.85Q348.82-45.58 352.81-45.58L352.81-45.58L352.81-45.58Q356.81-45.58 359.65-42.44L359.65-42.44L359.65-42.44Q362.49-39.30 363.05-33.76L363.05-33.76L363.05-33.76Q363.61-28.21 363.61-21.50L363.61-21.50L363.61-21.50Q363.61-14.79 363.09-6.71L363.09-6.71L363.09-6.71Q365.76-8.60 368.60-14.36L368.60-14.36L368.60-14.36Q372.47-22.36 373.84-31.99L373.84-31.99L373.84-31.99Q374.27-34.92 374.27-38.01L374.27-38.01L374.27-38.01Q374.27-41.11 373.93-42.40ZM412.28-4.73L412.28-4.73L412.28-4.73Q409.62 1.72 401.10 1.72L401.10 1.72L401.10 1.72Q396.72 1.72 393.97-1.29L393.97-1.29L393.97-1.29Q391.64-3.96 391.64-6.62L391.64-6.62L391.64-6.62Q391.64-13.59 394.83-27.18L394.83-27.18L398.01-43.86L415.47-45.58L410.22-18.40L410.22-18.40Q408.76-12.04 408.76-9.80L408.76-9.80L408.76-9.80Q408.76-4.90 412.28-4.73ZM399.56-55.81L399.56-55.81L399.56-55.81Q399.56-59.17 402.35-60.97L402.35-60.97L402.35-60.97Q405.15-62.78 409.19-62.78L409.19-62.78L409.19-62.78Q413.23-62.78 415.68-60.97L415.68-60.97L415.68-60.97Q418.13-59.17 418.13-55.81L418.13-55.81L418.13-55.81Q418.13-52.46 415.42-50.74L415.42-50.74L415.42-50.74Q412.71-49.02 408.67-49.02L408.67-49.02L408.67-49.02Q404.63-49.02 402.09-50.74L402.09-50.74L402.09-50.74Q399.56-52.46 399.56-55.81ZM461.82-35.78L461.82-35.78L461.82-35.78Q461.82-32.16 458.81-29.93L458.81-29.93L458.81-29.93Q455.80-27.69 450.90-27.69L450.90-27.69L450.90-27.69Q448.83-27.69 447.63-28.29L447.63-28.29L447.63-28.29Q448.58-30.53 448.88-33.33L448.88-33.33L448.88-33.33Q449.18-36.12 449.18-36.89L449.18-36.89L449.18-36.89Q449.18-40.51 446.68-40.51L446.68-40.51L446.68-40.51Q444.96-40.51 443.03-38.36L443.03-38.36L443.03-38.36Q441.09-36.21 439.46-32.85L439.46-32.85L439.46-32.85Q435.85-25.11 435.85-17.29L435.85-17.29L435.85-17.29Q435.85-12.99 437.48-11.05L437.48-11.05L437.48-11.05Q439.12-9.12 442.73-9.12L442.73-9.12L442.73-9.12Q447.72-9.12 451.67-13.24L451.67-13.24L451.67-13.24Q452.79-14.53 453.39-16.00L453.39-16.00L453.39-16.00Q456.66-14.28 456.66-9.55L456.66-9.55L456.66-9.55Q456.66-4.73 451.33-1.55L451.33-1.55L451.33-1.55Q445.82 1.72 437.05 1.72L437.05 1.72L437.05 1.72Q419.59 1.72 419.59-16.77L419.59-16.77L419.59-16.77Q419.59-30.27 427.25-38.01L427.25-38.01L427.25-38.01Q434.64-45.58 448.23-45.58L448.23-45.58L448.23-45.58Q461.82-45.58 461.82-35.78ZM498.97-14.53L498.97-14.53L498.97-14.53Q501.12-13.07 501.12-9.85L501.12-9.85L501.12-9.85Q501.12-6.62 499.49-4.56L499.49-4.56L499.49-4.56Q497.85-2.49 495.19-1.12L495.19-1.12L495.19-1.12Q489.68 1.72 483.75 1.72L483.75 1.72L483.75 1.72Q477.82 1.72 474.33 0.43L474.33 0.43L474.33 0.43Q470.85-0.86 468.53-3.27L468.53-3.27L468.53-3.27Q463.97-7.83 463.97-16.17L463.97-16.17L463.97-16.17Q463.97-29.15 471.02-37.07L471.02-37.07L471.02-37.07Q478.59-45.58 491.75-45.58L491.75-45.58L491.75-45.58Q499.92-45.58 503.96-42.14L503.96-42.14L503.96-42.14Q506.97-39.56 506.97-35.35L506.97-35.35L506.97-35.35Q506.97-20.21 480.83-20.21L480.83-20.21L480.83-20.21Q480.48-17.97 480.48-16.08L480.48-16.08L480.48-16.08Q480.48-12.13 482.25-10.62L482.25-10.62L482.25-10.62Q484.01-9.12 487.28-9.12L487.28-9.12L487.28-9.12Q490.54-9.12 494.03-10.62L494.03-10.62L494.03-10.62Q497.51-12.13 498.97-14.53ZM481.43-23.91L481.43-23.91L481.43-23.91Q487.53-23.91 491.06-27.69L491.06-27.69L491.06-27.69Q494.59-31.30 494.59-37.07L494.59-37.07L494.59-37.07Q494.59-39.04 493.86-40.12L493.86-40.12L493.86-40.12Q493.12-41.19 491.66-41.19L491.66-41.19L491.66-41.19Q490.20-41.19 488.95-40.64L488.95-40.64L488.95-40.64Q487.71-40.08 486.42-38.18L486.42-38.18L486.42-38.18Q483.23-33.88 481.43-23.91Z" fill="#ccc" data-darkreader-inline-fill="" style="--darkreader-inline-fill: #35393b;"></path></g></g><style>text {
  font-size: 64px;
  font-family: Arial Black;
  dominant-baseline: central;
  text-anchor: middle;
}</style><style class="darkreader darkreader--sync" media="screen"></style></svg>