<svg width="340.14500732421874px" height="120.8px" xmlns="http://www.w3.org/2000/svg" viewBox="79.92749633789063 14.600000000000001 340.14500732421874 120.8" style="background: rgba(0, 0, 0, 0); --darkreader-inline-bgimage: initial; --darkreader-inline-bgcolor: rgba(0, 0, 0, 0);" data-darkreader-inline-bgimage="" data-darkreader-inline-bgcolor="" preserveAspectRatio="xMidYMid"><defs><filter id="editing-hole" x="-100%" y="-100%" width="300%" height="300%"><feFlood flood-color="#000" result="black"></feFlood><feMorphology operator="dilate" radius="2" in="SourceGraphic" result="erode"></feMorphology><feGaussianBlur in="erode" stdDeviation="4" result="blur"></feGaussianBlur><feOffset in="blur" dx="2" dy="2" result="offset"></feOffset><feComposite operator="atop" in="offset" in2="black" result="merge"></feComposite><feComposite operator="in" in="merge" in2="SourceGraphic" result="inner-shadow"></feComposite></filter></defs><g filter="url(#editing-hole)"><g transform="translate(136.42267274856567, 104.44000053405762)"><path d="M-6.98 8.83L-6.98 8.83L-6.98 8.83Q-3.71 8.45-1.66 4.22L-1.66 4.22L-1.66 4.22Q0.45-0.06 2.37-9.92L2.37-9.92L8.58-42.24L22.46-42.24L16.26-9.92L16.26-9.92Q13.89 2.62 9.98 7.55L9.98 7.55L9.98 7.55Q7.94 10.11 5.34 11.14L5.34 11.14L5.34 11.14Q2.75 12.16-0.06 12.16L-0.06 12.16L-0.06 12.16Q-2.88 12.16-4.70 11.14L-4.70 11.14L-4.70 11.14Q-6.53 10.11-6.98 8.83ZM49.79-10.82L49.79-10.82L49.79-10.82Q51.39-9.73 51.39-7.33L51.39-7.33L51.39-7.33Q51.39-4.93 50.18-3.39L50.18-3.39L50.18-3.39Q48.96-1.86 46.98-0.83L46.98-0.83L46.98-0.83Q42.88 1.28 38.46 1.28L38.46 1.28L38.46 1.28Q34.05 1.28 31.46 0.32L31.46 0.32L31.46 0.32Q28.86-0.64 27.14-2.43L27.14-2.43L27.14-2.43Q23.74-5.82 23.74-12.03L23.74-12.03L23.74-12.03Q23.74-21.70 28.99-27.58L28.99-27.58L28.99-27.58Q34.62-33.92 44.42-33.92L44.42-33.92L44.42-33.92Q50.50-33.92 53.50-31.36L53.50-31.36L53.50-31.36Q55.74-29.44 55.74-26.30L55.74-26.30L55.74-26.30Q55.74-15.04 36.29-15.04L36.29-15.04L36.29-15.04Q36.03-13.38 36.03-11.97L36.03-11.97L36.03-11.97Q36.03-9.02 37.34-7.90L37.34-7.90L37.34-7.90Q38.66-6.78 41.09-6.78L41.09-6.78L41.09-6.78Q43.52-6.78 46.11-7.90L46.11-7.90L46.11-7.90Q48.70-9.02 49.79-10.82ZM36.74-17.79L36.74-17.79L36.74-17.79Q41.28-17.79 43.90-20.61L43.90-20.61L43.90-20.61Q46.53-23.30 46.53-27.58L46.53-27.58L46.53-27.58Q46.53-29.06 45.98-29.86L45.98-29.86L45.98-29.86Q45.44-30.66 44.35-30.66L44.35-30.66L44.35-30.66Q43.26-30.66 42.34-30.24L42.34-30.24L42.34-30.24Q41.41-29.82 40.45-28.42L40.45-28.42L40.45-28.42Q38.08-25.22 36.74-17.79ZM84.99 1.28L84.99 1.28L84.99 1.28Q77.25 1.28 77.25-4.74L77.25-4.74L77.25-4.74Q77.31-6.40 77.82-9.22L77.82-9.22L78.98-15.10L78.98-15.10Q80.70-23.42 80.70-25.28L80.70-25.28L80.70-25.28Q80.70-28.99 78.53-28.99L78.53-28.99L78.53-28.99Q74.88-28.99 72.96-19.46L72.96-19.46L69.18 0L56.32 1.28L62.98-32.70L73.47-33.92L72.45-27.65L72.45-27.65Q75.46-33.92 84.67-33.92L84.67-33.92L84.67-33.92Q89.15-33.92 91.04-32.03L91.04-32.03L91.04-32.03Q92.93-30.14 92.93-25.92L92.93-25.92L92.93-25.92Q92.93-21.95 90.88-12.67L90.88-12.67L90.88-12.67Q89.92-8.51 89.92-6.94L89.92-6.94L89.92-6.94Q89.92-5.38 90.78-4.48L90.78-4.48L90.78-4.48Q91.65-3.58 92.93-3.46L92.93-3.46L92.93-3.46Q92.29-1.28 90.08 0L90.08 0L90.08 0Q87.87 1.28 84.99 1.28ZM114.56-30.34L114.56-30.34L114.56-30.34Q118.02-33.92 125.31-33.92L125.31-33.92L125.31-33.92Q129.34-33.92 131.55-31.78L131.55-31.78L131.55-31.78Q133.76-29.63 133.76-25.70L133.76-25.70L133.76-25.70Q133.76-21.76 131.55-18.98L131.55-18.98L131.55-18.98Q129.34-16.19 125.25-15.04L125.25-15.04L125.25-15.04Q125.57-13.76 126.02-12.42L126.02-12.42L126.91-9.86L126.91-9.86Q128.13-6.59 129.09-5.44L129.09-5.44L129.09-5.44Q130.05-4.29 131.33-3.90L131.33-3.90L131.33-3.90Q130.62-1.28 128.06 0.13L128.06 0.13L128.06 0.13Q126.02 1.28 123.20 1.28L123.20 1.28L123.20 1.28Q114.94 1.28 113.86-11.46L113.86-11.46L113.86-11.46Q113.66-13.25 113.66-15.04L113.66-15.04L113.66-15.04Q116.86-15.94 119.10-18.94L119.10-18.94L119.10-18.94Q121.34-21.95 121.34-25.47L121.34-25.47L121.34-25.47Q121.34-28.99 118.85-28.99L118.85-28.99L118.85-28.99Q117.06-28.99 115.65-27.01L115.65-27.01L115.65-27.01Q114.24-25.02 113.60-21.63L113.60-21.63L109.38 0L96.45 1.28L105.41-44.80L118.27-46.08L116.80-38.46L116.80-38.46Q115.84-33.09 114.56-30.34ZM152.06-3.52L152.06-3.52L152.06-3.52Q150.08 1.28 143.74 1.28L143.74 1.28L143.74 1.28Q140.48 1.28 138.43-0.96L138.43-0.96L138.43-0.96Q136.70-2.94 136.70-4.93L136.70-4.93L136.70-4.93Q136.70-10.11 139.07-20.22L139.07-20.22L141.44-32.64L154.43-33.92L150.53-13.70L150.53-13.70Q149.44-8.96 149.44-7.30L149.44-7.30L149.44-7.30Q149.44-3.65 152.06-3.52ZM142.59-41.54L142.59-41.54L142.59-41.54Q142.59-44.03 144.67-45.38L144.67-45.38L144.67-45.38Q146.75-46.72 149.76-46.72L149.76-46.72L149.76-46.72Q152.77-46.72 154.59-45.38L154.59-45.38L154.59-45.38Q156.42-44.03 156.42-41.54L156.42-41.54L156.42-41.54Q156.42-39.04 154.40-37.76L154.40-37.76L154.40-37.76Q152.38-36.48 149.38-36.48L149.38-36.48L149.38-36.48Q146.37-36.48 144.48-37.76L144.48-37.76L144.48-37.76Q142.59-39.04 142.59-41.54ZM184.58 1.28L184.58 1.28L184.58 1.28Q176.83 1.28 176.83-4.74L176.83-4.74L176.83-4.74Q176.90-6.40 177.41-9.22L177.41-9.22L178.56-15.10L178.56-15.10Q180.29-23.42 180.29-25.28L180.29-25.28L180.29-25.28Q180.29-28.99 178.11-28.99L178.11-28.99L178.11-28.99Q174.46-28.99 172.54-19.46L172.54-19.46L168.77 0L155.90 1.28L162.56-32.70L173.06-33.92L172.03-27.65L172.03-27.65Q175.04-33.92 184.26-33.92L184.26-33.92L184.26-33.92Q188.74-33.92 190.62-32.03L190.62-32.03L190.62-32.03Q192.51-30.14 192.51-25.92L192.51-25.92L192.51-25.92Q192.51-21.95 190.46-12.67L190.46-12.67L190.46-12.67Q189.50-8.51 189.50-6.94L189.50-6.94L189.50-6.94Q189.50-5.38 190.37-4.48L190.37-4.48L190.37-4.48Q191.23-3.58 192.51-3.46L192.51-3.46L192.51-3.46Q191.87-1.28 189.66 0L189.66 0L189.66 0Q187.46 1.28 184.58 1.28ZM216.77-22.46L216.77-22.46L216.77-22.46Q217.66-24.83 217.66-26.88L217.66-26.88L217.66-26.88Q217.66-30.66 214.59-30.66L214.59-30.66L214.59-30.66Q212.99-30.66 211.68-29.22L211.68-29.22L211.68-29.22Q210.37-27.78 210.37-25.98L210.37-25.98L210.37-25.98Q210.37-24.70 211.39-23.68L211.39-23.68L211.39-23.68Q212.86-22.27 216.64-19.97L216.64-19.97L216.64-19.97Q220.42-17.66 221.86-15.78L221.86-15.78L221.86-15.78Q223.30-13.89 223.30-11.30L223.30-11.30L223.30-11.30Q223.30-8.70 222.05-6.34L222.05-6.34L222.05-6.34Q220.80-3.97 218.56-2.30L218.56-2.30L218.56-2.30Q213.76 1.28 206.08 1.28L206.08 1.28L206.08 1.28Q201.92 1.28 198.72-0.90L198.72-0.90L198.72-0.90Q195.52-3.01 195.52-5.50L195.52-5.50L195.52-5.50Q195.52-8 197.34-9.47L197.34-9.47L197.34-9.47Q199.17-10.94 201.86-10.94L201.86-10.94L201.86-10.94Q204.54-10.94 206.21-9.92L206.21-9.92L206.21-9.92Q205.38-7.81 205.38-6.40L205.38-6.40L205.38-6.40Q205.38-2.18 208.96-2.18L208.96-2.18L208.96-2.18Q210.50-2.18 211.52-3.14L211.52-3.14L211.52-3.14Q212.54-4.10 212.54-5.76L212.54-5.76L212.54-5.76Q212.54-9.02 207.04-12.48L207.04-12.48L207.04-12.48Q202.56-15.42 201.54-16.58L201.54-16.58L201.54-16.58Q199.81-18.62 199.81-21.18L199.81-21.18L199.81-21.18Q199.81-23.74 201.02-26.18L201.02-26.18L201.02-26.18Q202.24-28.61 204.48-30.34L204.48-30.34L204.48-30.34Q209.15-33.92 217.28-33.92L217.28-33.92L217.28-33.92Q221.44-33.92 223.90-32.26L223.90-32.26L223.90-32.26Q226.37-30.59 226.37-27.78L226.37-27.78L226.37-27.78Q226.37-24.96 224.67-23.36L224.67-23.36L224.67-23.36Q222.98-21.76 219.90-21.76L219.90-21.76L219.90-21.76Q217.79-21.76 216.77-22.46Z" fill="#ccc" data-darkreader-inline-fill="" style="--darkreader-inline-fill: #35393b;"></path></g></g><style>text {
  font-size: 64px;
  font-family: Arial Black;
  dominant-baseline: central;
  text-anchor: middle;
}</style><style class="darkreader darkreader--sync" media="screen"></style></svg>