<svg width="516.8852172851562px" height="120.8px" xmlns="http://www.w3.org/2000/svg" viewBox="-8.44260864257808 14.600000000000001 516.8852172851562 120.8" style="background: rgba(0, 0, 0, 0); --darkreader-inline-bgimage: initial; --darkreader-inline-bgcolor: rgba(0, 0, 0, 0);" data-darkreader-inline-bgimage="" data-darkreader-inline-bgcolor="" preserveAspectRatio="xMidYMid"><defs><filter id="editing-hole" x="-100%" y="-100%" width="300%" height="300%"><feFlood flood-color="#000" result="black"></feFlood><feMorphology operator="dilate" radius="2" in="SourceGraphic" result="erode"></feMorphology><feGaussianBlur in="erode" stdDeviation="4" result="blur"></feGaussianBlur><feOffset in="blur" dx="2" dy="2" result="offset"></feOffset><feComposite operator="atop" in="offset" in2="black" result="merge"></feComposite><feComposite operator="in" in="merge" in2="SourceGraphic" result="inner-shadow"></feComposite></filter></defs><g filter="url(#editing-hole)"><g transform="translate(68.84286224842072, 104.76000022888184)"><path d="M26.05-29.57L26.05-29.57L26.05-29.57Q27.01-31.49 27.01-33.28L27.01-33.28L27.01-33.28Q27.01-35.07 26.82-36.06L26.82-36.06L26.82-36.06Q26.62-37.06 26.18-37.82L26.18-37.82L26.18-37.82Q25.22-39.49 23.30-39.49L23.30-39.49L23.30-39.49Q20.93-39.49 19.01-37.76L19.01-37.76L19.01-37.76Q16.96-35.97 16.96-33.15L16.96-33.15L16.96-33.15Q16.96-31.36 18.21-29.98L18.21-29.98L18.21-29.98Q19.46-28.61 21.38-27.33L21.38-27.33L21.38-27.33Q23.30-26.05 25.47-24.77L25.47-24.77L25.47-24.77Q27.65-23.49 29.57-21.95L29.57-21.95L29.57-21.95Q33.98-18.43 33.98-13.70L33.98-13.70L33.98-13.70Q33.98-10.50 32.29-7.78L32.29-7.78L32.29-7.78Q30.59-5.06 27.78-3.07L27.78-3.07L27.78-3.07Q21.63 1.28 13.50 1.28L13.50 1.28L13.50 1.28Q6.91 1.28 3.52-0.86L3.52-0.86L3.52-0.86Q0.13-3.01 0.13-6.27L0.13-6.27L0.13-6.27Q0.13-12.10 4.67-13.57L4.67-13.57L4.67-13.57Q5.95-14.02 7.90-14.02L7.90-14.02L7.90-14.02Q9.86-14.02 12.10-13.18L12.10-13.18L12.10-13.18Q11.07-10.56 11.07-8.19L11.07-8.19L11.07-8.19Q11.07-3.07 14.72-3.07L14.72-3.07L14.72-3.07Q17.09-3.07 19.04-4.80L19.04-4.80L19.04-4.80Q20.99-6.53 20.99-8.48L20.99-8.48L20.99-8.48Q20.99-10.43 19.74-11.84L19.74-11.84L19.74-11.84Q18.50-13.25 16.64-14.37L16.64-14.37L16.64-14.37Q14.78-15.49 12.64-16.58L12.64-16.58L12.64-16.58Q10.50-17.66 8.64-19.20L8.64-19.20L8.64-19.20Q4.29-22.72 4.29-28.35L4.29-28.35L4.29-28.35Q4.29-32 6.08-34.85L6.08-34.85L6.08-34.85Q7.87-37.70 10.75-39.62L10.75-39.62L10.75-39.62Q16.51-43.52 23.58-43.52L23.58-43.52L23.58-43.52Q30.66-43.52 34.08-41.41L34.08-41.41L34.08-41.41Q37.50-39.30 37.50-35.71L37.50-35.71L37.50-35.71Q37.50-32.58 35.07-30.59L35.07-30.59L35.07-30.59Q32.96-28.93 30.40-28.93L30.40-28.93L30.40-28.93Q27.84-28.93 26.05-29.57ZM68.67-4.38L68.67-4.38L68.67-4.38Q65.98-1.66 62.30-0.19L62.30-0.19L62.30-0.19Q58.62 1.28 54.98 1.28L54.98 1.28L54.98 1.28Q51.33 1.28 50.05 0.64L50.05 0.64L48.06 11.52L35.07 12.80L43.90-32.64L54.34-33.73L53.50-29.31L53.50-29.31Q56.19-33.86 61.76-33.86L61.76-33.86L61.76-33.86Q68.03-33.86 71.36-29.82L71.36-29.82L71.36-29.82Q74.30-26.18 74.30-20.61L74.30-20.61L74.30-20.61Q74.30-15.04 72.83-11.07L72.83-11.07L72.83-11.07Q71.36-7.10 68.67-4.38ZM54.21-22.34L50.82-3.58L50.82-3.58Q52.16-2.43 53.82-2.43L53.82-2.43L53.82-2.43Q55.49-2.43 56.45-3.07L56.45-3.07L56.45-3.07Q57.41-3.71 58.11-4.99L58.11-4.99L58.11-4.99Q60.03-8.45 61.57-18.94L61.57-18.94L61.57-18.94Q62.02-22.02 62.02-25.02L62.02-25.02L62.02-25.02Q62.02-28.03 61.34-28.99L61.34-28.99L61.34-28.99Q60.67-29.95 59.39-29.95L59.39-29.95L59.39-29.95Q55.49-29.95 54.21-22.34L54.21-22.34ZM98.18-17.98L98.18-17.98L98.18-17.98Q100.48-22.08 100.48-26.24L100.48-26.24L100.48-26.24Q100.48-28.99 98.50-28.99L98.50-28.99L98.50-28.99Q96.96-28.99 95.36-26.37L95.36-26.37L95.36-26.37Q93.70-23.74 93.18-20.35L93.18-20.35L89.86 0L76.61 1.28L83.14-32.64L93.70-33.92L92.54-27.46L92.54-27.46Q95.68-33.92 102.72-33.92L102.72-33.92L102.72-33.92Q106.43-33.92 108.45-32L108.45-32L108.45-32Q110.46-30.08 110.46-26.14L110.46-26.14L110.46-26.14Q110.46-22.21 107.87-19.71L107.87-19.71L107.87-19.71Q105.28-17.22 100.86-17.22L100.86-17.22L100.86-17.22Q98.94-17.22 98.18-17.98ZM126.85-3.52L126.85-3.52L126.85-3.52Q124.86 1.28 118.53 1.28L118.53 1.28L118.53 1.28Q115.26 1.28 113.22-0.96L113.22-0.96L113.22-0.96Q111.49-2.94 111.49-4.93L111.49-4.93L111.49-4.93Q111.49-10.11 113.86-20.22L113.86-20.22L116.22-32.64L129.22-33.92L125.31-13.70L125.31-13.70Q124.22-8.96 124.22-7.30L124.22-7.30L124.22-7.30Q124.22-3.65 126.85-3.52ZM117.38-41.54L117.38-41.54L117.38-41.54Q117.38-44.03 119.46-45.38L119.46-45.38L119.46-45.38Q121.54-46.72 124.54-46.72L124.54-46.72L124.54-46.72Q127.55-46.72 129.38-45.38L129.38-45.38L129.38-45.38Q131.20-44.03 131.20-41.54L131.20-41.54L131.20-41.54Q131.20-39.04 129.18-37.76L129.18-37.76L129.18-37.76Q127.17-36.48 124.16-36.48L124.16-36.48L124.16-36.48Q121.15-36.48 119.26-37.76L119.26-37.76L119.26-37.76Q117.38-39.04 117.38-41.54ZM159.36 1.28L159.36 1.28L159.36 1.28Q151.62 1.28 151.62-4.74L151.62-4.74L151.62-4.74Q151.68-6.40 152.19-9.22L152.19-9.22L153.34-15.10L153.34-15.10Q155.07-23.42 155.07-25.28L155.07-25.28L155.07-25.28Q155.07-28.99 152.90-28.99L152.90-28.99L152.90-28.99Q149.25-28.99 147.33-19.46L147.33-19.46L143.55 0L130.69 1.28L137.34-32.70L147.84-33.92L146.82-27.65L146.82-27.65Q149.82-33.92 159.04-33.92L159.04-33.92L159.04-33.92Q163.52-33.92 165.41-32.03L165.41-32.03L165.41-32.03Q167.30-30.14 167.30-25.92L167.30-25.92L167.30-25.92Q167.30-21.95 165.25-12.67L165.25-12.67L165.25-12.67Q164.29-8.51 164.29-6.94L164.29-6.94L164.29-6.94Q164.29-5.38 165.15-4.48L165.15-4.48L165.15-4.48Q166.02-3.58 167.30-3.46L167.30-3.46L167.30-3.46Q166.66-1.28 164.45 0L164.45 0L164.45 0Q162.24 1.28 159.36 1.28ZM176.96-26.75L176.96-26.75L176.96-26.75Q179.14-29.82 182.43-31.87L182.43-31.87L182.43-31.87Q185.73-33.92 189.76-33.92L189.76-33.92L189.76-33.92Q193.79-33.92 195.71-32.64L195.71-32.64L208.26-33.92L203.90-9.34L203.90-9.34Q201.66 3.20 196.93 8.13L196.93 8.13L196.93 8.13Q192.38 12.80 183.55 12.80L183.55 12.80L183.55 12.80Q176.83 12.80 172.99 10.69L172.99 10.69L172.99 10.69Q169.15 8.58 169.15 5.06L169.15 5.06L169.15 5.06Q169.15 2.43 171.14 0.93L171.14 0.93L171.14 0.93Q173.12-0.58 176.19-0.58L176.19-0.58L176.19-0.58Q178.88-0.58 180.93 0.64L180.93 0.64L180.93 0.64Q182.14 1.28 182.72 2.18L182.72 2.18L182.72 2.18Q181.25 3.46 181.25 5.57L181.25 5.57L181.25 5.57Q181.25 8.32 183.81 8.32L183.81 8.32L183.81 8.32Q188.10 8.32 190.53-1.79L190.53-1.79L190.53-1.79Q191.23-4.54 191.81-7.30L191.81-7.30L191.81-7.30Q188.93-3.78 182.40-3.78L182.40-3.78L182.40-3.78Q177.86-3.78 175.23-5.95L175.23-5.95L175.23-5.95Q172.61-8.13 172.61-13.25L172.61-13.25L172.61-13.25Q172.61-16.45 173.70-20.06L173.70-20.06L173.70-20.06Q174.78-23.68 176.96-26.75ZM185.28-13.06L185.28-13.06L185.28-13.06Q185.28-8.70 187.52-8.70L187.52-8.70L187.52-8.70Q189.06-8.70 190.53-10.37L190.53-10.37L190.53-10.37Q191.68-11.71 192.13-13.70L192.13-13.70L195.39-30.14L195.39-30.14Q195.07-30.21 194.75-30.34L194.75-30.34L194.75-30.34Q194.11-30.59 193.28-30.59L193.28-30.59L193.28-30.59Q189.38-30.59 187.07-24.19L187.07-24.19L187.07-24.19Q185.28-19.20 185.28-13.06ZM223.30-0.32L223.30-0.32L231.36-42.24L231.36-42.24Q238.91-42.88 243.78-42.88L243.78-42.88L243.78-42.88Q248.64-42.88 251.78-42.46L251.78-42.46L251.78-42.46Q254.91-42.05 257.02-40.96L257.02-40.96L257.02-40.96Q261.25-38.91 261.25-33.28L261.25-33.28L261.25-33.28Q261.25-30.02 258.43-27.26L258.43-27.26L258.43-27.26Q255.81-24.77 252.93-24.19L252.93-24.19L252.93-24.19Q256.00-23.68 258.18-21.38L258.18-21.38L258.18-21.38Q260.48-18.94 260.48-15.17L260.48-15.17L260.48-15.17Q260.48-7.87 255.04-3.62L255.04-3.62L255.04-3.62Q249.60 0.64 238.91 0.64L238.91 0.64L238.91 0.64Q231.55 0.64 223.30-0.32ZM240.70-20.61L237.50-4.03L237.50-4.03Q238.08-3.97 238.21-3.97L238.21-3.97L238.78-3.97L238.78-3.97Q244.03-3.97 246.27-7.42L246.27-7.42L246.27-7.42Q247.94-10.11 247.94-15.04L247.94-15.04L247.94-15.04Q247.94-17.66 246.24-19.07L246.24-19.07L246.24-19.07Q244.54-20.48 240.70-20.61L240.70-20.61ZM250.43-33.22L250.43-33.22L250.43-33.22Q250.43-38.53 245.31-38.53L245.31-38.53L244.74-38.53L244.74-38.53Q244.48-38.53 244.10-38.46L244.10-38.46L241.54-24.96L242.18-24.96L242.18-24.96Q250.43-25.15 250.43-33.22ZM278.66 1.28L278.66 1.28L278.66 1.28Q264.58 1.28 264.58-11.97L264.58-11.97L264.58-11.97Q264.58-21.38 269.76-27.46L269.76-27.46L269.76-27.46Q275.26-33.92 284.80-33.92L284.80-33.92L284.80-33.92Q291.71-33.92 295.23-30.72L295.23-30.72L295.23-30.72Q298.75-27.52 298.75-20.80L298.75-20.80L298.75-20.80Q298.75-10.56 293.25-4.61L293.25-4.61L293.25-4.61Q287.87 1.28 278.66 1.28ZM280.32-26.56L280.32-26.56L280.32-26.56Q279.55-24.83 278.94-22.24L278.94-22.24L278.94-22.24Q278.34-19.65 277.57-15.55L277.57-15.55L277.57-15.55Q276.80-11.46 276.80-6.40L276.80-6.40L276.80-6.40Q276.80-4.74 277.34-3.65L277.34-3.65L277.34-3.65Q277.89-2.56 279.36-2.56L279.36-2.56L279.36-2.56Q280.83-2.56 281.76-3.26L281.76-3.26L281.76-3.26Q282.69-3.97 283.39-5.63L283.39-5.63L283.39-5.63Q284.67-8.58 285.70-14.05L285.70-14.05L285.70-14.05Q286.72-19.52 286.82-21.89L286.82-21.89L286.82-21.89Q286.91-24.26 286.91-26.02L286.91-26.02L286.91-26.02Q286.91-27.78 286.40-28.93L286.40-28.93L286.40-28.93Q285.89-30.08 284.45-30.08L284.45-30.08L284.45-30.08Q283.01-30.08 282.05-29.18L282.05-29.18L282.05-29.18Q281.09-28.29 280.32-26.56ZM316.48 1.28L316.48 1.28L316.48 1.28Q302.40 1.28 302.40-11.97L302.40-11.97L302.40-11.97Q302.40-21.38 307.58-27.46L307.58-27.46L307.58-27.46Q313.09-33.92 322.62-33.92L322.62-33.92L322.62-33.92Q329.54-33.92 333.06-30.72L333.06-30.72L333.06-30.72Q336.58-27.52 336.58-20.80L336.58-20.80L336.58-20.80Q336.58-10.56 331.07-4.61L331.07-4.61L331.07-4.61Q325.70 1.28 316.48 1.28ZM318.14-26.56L318.14-26.56L318.14-26.56Q317.38-24.83 316.77-22.24L316.77-22.24L316.77-22.24Q316.16-19.65 315.39-15.55L315.39-15.55L315.39-15.55Q314.62-11.46 314.62-6.40L314.62-6.40L314.62-6.40Q314.62-4.74 315.17-3.65L315.17-3.65L315.17-3.65Q315.71-2.56 317.18-2.56L317.18-2.56L317.18-2.56Q318.66-2.56 319.58-3.26L319.58-3.26L319.58-3.26Q320.51-3.97 321.22-5.63L321.22-5.63L321.22-5.63Q322.50-8.58 323.52-14.05L323.52-14.05L323.52-14.05Q324.54-19.52 324.64-21.89L324.64-21.89L324.64-21.89Q324.74-24.26 324.74-26.02L324.74-26.02L324.74-26.02Q324.74-27.78 324.22-28.93L324.22-28.93L324.22-28.93Q323.71-30.08 322.27-30.08L322.27-30.08L322.27-30.08Q320.83-30.08 319.87-29.18L319.87-29.18L319.87-29.18Q318.91-28.29 318.14-26.56ZM341.38-6.40L341.38-6.40L341.38-6.40Q341.38-8.13 342.27-12.48L342.27-12.48L345.66-29.76L341.89-29.76L342.14-31.68L342.14-31.68Q349.82-33.98 357.25-39.62L357.25-39.62L360.32-39.62L358.78-32.64L363.78-32.64L363.20-29.76L358.27-29.76L355.01-12.48L355.01-12.48Q354.18-8.51 354.18-7.17L354.18-7.17L354.18-7.17Q354.18-4.10 356.86-3.46L356.86-3.46L356.86-3.46Q356.22-1.28 353.92 0L353.92 0L353.92 0Q351.62 1.28 348.35 1.28L348.35 1.28L348.35 1.28Q345.09 1.28 343.23-0.77L343.23-0.77L343.23-0.77Q341.38-2.82 341.38-6.40Z" fill="#ccc" data-darkreader-inline-fill="" style="--darkreader-inline-fill: #35393b;"></path></g></g><style>text {
  font-size: 64px;
  font-family: Arial Black;
  dominant-baseline: central;
  text-anchor: middle;
}</style><style class="darkreader darkreader--sync" media="screen"></style></svg>